<mxfile host="app.diagrams.net" agent="Mozilla/5.0 (Macintosh; Intel Mac OS X 10_15_7) AppleWebKit/537.36 (KHTML, like Gecko) Chrome/136.0.0.0 Safari/537.36" version="27.1.1">
  <diagram name="第 1 页" id="mKnvXgXuS8pGYyAErCx5">
    <mxGraphModel dx="1234" dy="757" grid="1" gridSize="10" guides="1" tooltips="1" connect="1" arrows="1" fold="1" page="1" pageScale="1" pageWidth="1654" pageHeight="1169" math="0" shadow="0">
      <root>
        <mxCell id="0" />
        <mxCell id="1" parent="0" />
        <mxCell id="67hWNu62ocXWBOCx5b0s-8" style="edgeStyle=orthogonalEdgeStyle;rounded=0;orthogonalLoop=1;jettySize=auto;html=1;exitX=1;exitY=0.5;exitDx=0;exitDy=0;exitPerimeter=0;" edge="1" parent="1" source="67hWNu62ocXWBOCx5b0s-1" target="67hWNu62ocXWBOCx5b0s-2">
          <mxGeometry relative="1" as="geometry" />
        </mxCell>
        <mxCell id="67hWNu62ocXWBOCx5b0s-1" value="Aurora" style="strokeWidth=2;html=1;shape=mxgraph.flowchart.database;whiteSpace=wrap;" vertex="1" parent="1">
          <mxGeometry x="270" y="65" width="80" height="80" as="geometry" />
        </mxCell>
        <mxCell id="67hWNu62ocXWBOCx5b0s-11" style="edgeStyle=orthogonalEdgeStyle;rounded=0;orthogonalLoop=1;jettySize=auto;html=1;exitX=0.5;exitY=1;exitDx=0;exitDy=0;" edge="1" parent="1" source="67hWNu62ocXWBOCx5b0s-2" target="67hWNu62ocXWBOCx5b0s-4">
          <mxGeometry relative="1" as="geometry" />
        </mxCell>
        <mxCell id="67hWNu62ocXWBOCx5b0s-2" value="Raft-maxwell" style="rounded=0;whiteSpace=wrap;html=1;fillColor=#dae8fc;strokeColor=#6c8ebf;shadow=1;fontFamily=Tahoma;" vertex="1" parent="1">
          <mxGeometry x="460" y="75" width="120" height="60" as="geometry" />
        </mxCell>
        <mxCell id="67hWNu62ocXWBOCx5b0s-22" style="edgeStyle=orthogonalEdgeStyle;rounded=0;orthogonalLoop=1;jettySize=auto;html=1;exitX=0.5;exitY=1;exitDx=0;exitDy=0;" edge="1" parent="1" source="67hWNu62ocXWBOCx5b0s-3" target="67hWNu62ocXWBOCx5b0s-9">
          <mxGeometry relative="1" as="geometry" />
        </mxCell>
        <mxCell id="67hWNu62ocXWBOCx5b0s-23" value="Update DML/DDL to mysql" style="edgeLabel;html=1;align=center;verticalAlign=middle;resizable=0;points=[];" vertex="1" connectable="0" parent="67hWNu62ocXWBOCx5b0s-22">
          <mxGeometry x="-0.0886" y="-2" relative="1" as="geometry">
            <mxPoint as="offset" />
          </mxGeometry>
        </mxCell>
        <mxCell id="67hWNu62ocXWBOCx5b0s-3" value="Parquet-sync" style="rounded=0;whiteSpace=wrap;html=1;fillColor=#dae8fc;strokeColor=#6c8ebf;shadow=1;fontFamily=Tahoma;" vertex="1" parent="1">
          <mxGeometry x="930" y="541" width="120" height="60" as="geometry" />
        </mxCell>
        <mxCell id="67hWNu62ocXWBOCx5b0s-12" style="edgeStyle=orthogonalEdgeStyle;rounded=0;orthogonalLoop=1;jettySize=auto;html=1;exitX=0.5;exitY=1;exitDx=0;exitDy=0;" edge="1" parent="1" source="67hWNu62ocXWBOCx5b0s-4" target="67hWNu62ocXWBOCx5b0s-5">
          <mxGeometry relative="1" as="geometry" />
        </mxCell>
        <mxCell id="67hWNu62ocXWBOCx5b0s-4" value="Kafka" style="shape=process;whiteSpace=wrap;html=1;backgroundOutline=1;" vertex="1" parent="1">
          <mxGeometry x="430" y="200" width="180" height="30" as="geometry" />
        </mxCell>
        <mxCell id="67hWNu62ocXWBOCx5b0s-5" value="Databend-cdc" style="rounded=0;whiteSpace=wrap;html=1;fillColor=#f8cecc;strokeColor=#b85450;shadow=1;fontFamily=Tahoma;" vertex="1" parent="1">
          <mxGeometry x="455" y="290" width="130" height="60" as="geometry" />
        </mxCell>
        <mxCell id="67hWNu62ocXWBOCx5b0s-7" value="S3" style="html=1;verticalLabelPosition=bottom;align=center;labelBackgroundColor=#ffffff;verticalAlign=top;strokeWidth=2;strokeColor=#0080F0;shadow=0;dashed=0;shape=mxgraph.ios7.icons.cloud;" vertex="1" parent="1">
          <mxGeometry x="472.5" y="541" width="95" height="50" as="geometry" />
        </mxCell>
        <mxCell id="67hWNu62ocXWBOCx5b0s-9" value="Aurora" style="strokeWidth=2;html=1;shape=mxgraph.flowchart.database;whiteSpace=wrap;" vertex="1" parent="1">
          <mxGeometry x="950" y="680" width="80" height="80" as="geometry" />
        </mxCell>
        <mxCell id="67hWNu62ocXWBOCx5b0s-10" value="Databend" style="strokeWidth=2;html=1;shape=mxgraph.flowchart.database;whiteSpace=wrap;" vertex="1" parent="1">
          <mxGeometry x="270" y="651" width="80" height="80" as="geometry" />
        </mxCell>
        <mxCell id="67hWNu62ocXWBOCx5b0s-13" style="edgeStyle=orthogonalEdgeStyle;rounded=0;orthogonalLoop=1;jettySize=auto;html=1;exitX=0.5;exitY=1;exitDx=0;exitDy=0;entryX=0.5;entryY=0.04;entryDx=0;entryDy=0;entryPerimeter=0;" edge="1" parent="1" source="67hWNu62ocXWBOCx5b0s-5" target="67hWNu62ocXWBOCx5b0s-7">
          <mxGeometry relative="1" as="geometry" />
        </mxCell>
        <mxCell id="67hWNu62ocXWBOCx5b0s-15" value="Write parquet to S3" style="edgeLabel;html=1;align=center;verticalAlign=middle;resizable=0;points=[];" vertex="1" connectable="0" parent="67hWNu62ocXWBOCx5b0s-13">
          <mxGeometry x="0.1569" y="-2" relative="1" as="geometry">
            <mxPoint as="offset" />
          </mxGeometry>
        </mxCell>
        <mxCell id="67hWNu62ocXWBOCx5b0s-17" style="edgeStyle=orthogonalEdgeStyle;rounded=0;orthogonalLoop=1;jettySize=auto;html=1;exitX=0;exitY=0.5;exitDx=0;exitDy=0;entryX=1.026;entryY=0.6;entryDx=0;entryDy=0;entryPerimeter=0;" edge="1" parent="1" source="67hWNu62ocXWBOCx5b0s-3" target="67hWNu62ocXWBOCx5b0s-7">
          <mxGeometry relative="1" as="geometry" />
        </mxCell>
        <mxCell id="67hWNu62ocXWBOCx5b0s-21" value="Identify insert/update/delete/ddl operations in order&amp;nbsp;&lt;div&gt;and convert them into MySQL DML/DDL statements&lt;/div&gt;" style="edgeLabel;html=1;align=center;verticalAlign=middle;resizable=0;points=[];" vertex="1" connectable="0" parent="67hWNu62ocXWBOCx5b0s-17">
          <mxGeometry x="-0.0667" y="1" relative="1" as="geometry">
            <mxPoint as="offset" />
          </mxGeometry>
        </mxCell>
      </root>
    </mxGraphModel>
  </diagram>
</mxfile>
